<mxfile host="app.diagrams.net" modified="2023-05-22T20:54:46.124Z" agent="Mozilla/5.0 (Windows NT 10.0; Win64; x64) AppleWebKit/537.36 (KHTML, like Gecko) Chrome/113.0.0.0 Safari/537.36" etag="i8gkOXR7vRl_f6zVpk75" version="21.3.2" type="device">
  <diagram name="Страница 1" id="_z9sbXUod7Zqww_JdPd2">
    <mxGraphModel dx="2232" dy="864" grid="1" gridSize="10" guides="1" tooltips="1" connect="1" arrows="1" fold="1" page="1" pageScale="1" pageWidth="827" pageHeight="1169" math="0" shadow="0">
      <root>
        <mxCell id="0" />
        <mxCell id="1" parent="0" />
        <mxCell id="1dVAUiEyzIbPY-LR-RZL-49" style="edgeStyle=orthogonalEdgeStyle;rounded=0;orthogonalLoop=1;jettySize=auto;html=1;entryX=0.5;entryY=0;entryDx=0;entryDy=0;endArrow=block;endFill=0;" edge="1" parent="1" source="1dVAUiEyzIbPY-LR-RZL-1" target="1dVAUiEyzIbPY-LR-RZL-42">
          <mxGeometry relative="1" as="geometry">
            <Array as="points">
              <mxPoint x="-30" y="370" />
              <mxPoint x="204" y="370" />
            </Array>
          </mxGeometry>
        </mxCell>
        <mxCell id="1dVAUiEyzIbPY-LR-RZL-1" value="Pizzaiolo" style="swimlane;fontStyle=1;align=center;verticalAlign=top;childLayout=stackLayout;horizontal=1;startSize=26;horizontalStack=0;resizeParent=1;resizeParentMax=0;resizeLast=0;collapsible=1;marginBottom=0;whiteSpace=wrap;html=1;" vertex="1" parent="1">
          <mxGeometry x="-110" y="210" width="160" height="138" as="geometry" />
        </mxCell>
        <mxCell id="1dVAUiEyzIbPY-LR-RZL-56" value="# surname: string" style="text;strokeColor=none;fillColor=none;align=left;verticalAlign=top;spacingLeft=4;spacingRight=4;overflow=hidden;rotatable=0;points=[[0,0.5],[1,0.5]];portConstraint=eastwest;whiteSpace=wrap;html=1;" vertex="1" parent="1dVAUiEyzIbPY-LR-RZL-1">
          <mxGeometry y="26" width="160" height="26" as="geometry" />
        </mxCell>
        <mxCell id="1dVAUiEyzIbPY-LR-RZL-55" value="# successor: ICook" style="text;strokeColor=none;fillColor=none;align=left;verticalAlign=top;spacingLeft=4;spacingRight=4;overflow=hidden;rotatable=0;points=[[0,0.5],[1,0.5]];portConstraint=eastwest;whiteSpace=wrap;html=1;" vertex="1" parent="1dVAUiEyzIbPY-LR-RZL-1">
          <mxGeometry y="52" width="160" height="26" as="geometry" />
        </mxCell>
        <mxCell id="1dVAUiEyzIbPY-LR-RZL-3" value="" style="line;strokeWidth=1;fillColor=none;align=left;verticalAlign=middle;spacingTop=-1;spacingLeft=3;spacingRight=3;rotatable=0;labelPosition=right;points=[];portConstraint=eastwest;strokeColor=inherit;" vertex="1" parent="1dVAUiEyzIbPY-LR-RZL-1">
          <mxGeometry y="78" width="160" height="8" as="geometry" />
        </mxCell>
        <mxCell id="1dVAUiEyzIbPY-LR-RZL-4" value="+ Cook(IDish): void" style="text;strokeColor=none;fillColor=none;align=left;verticalAlign=top;spacingLeft=4;spacingRight=4;overflow=hidden;rotatable=0;points=[[0,0.5],[1,0.5]];portConstraint=eastwest;whiteSpace=wrap;html=1;" vertex="1" parent="1dVAUiEyzIbPY-LR-RZL-1">
          <mxGeometry y="86" width="160" height="26" as="geometry" />
        </mxCell>
        <mxCell id="1dVAUiEyzIbPY-LR-RZL-65" value="+ SetNextCook(ICook): void" style="text;strokeColor=none;fillColor=none;align=left;verticalAlign=top;spacingLeft=4;spacingRight=4;overflow=hidden;rotatable=0;points=[[0,0.5],[1,0.5]];portConstraint=eastwest;whiteSpace=wrap;html=1;" vertex="1" parent="1dVAUiEyzIbPY-LR-RZL-1">
          <mxGeometry y="112" width="160" height="26" as="geometry" />
        </mxCell>
        <mxCell id="1dVAUiEyzIbPY-LR-RZL-5" value="&lt;p style=&quot;margin:0px;margin-top:4px;text-align:center;&quot;&gt;&lt;i&gt;&amp;lt;&amp;lt;Interface&amp;gt;&amp;gt;&lt;/i&gt;&lt;br&gt;&lt;b&gt;ICook&lt;/b&gt;&lt;/p&gt;&lt;p style=&quot;margin:0px;margin-left:4px;&quot;&gt;&lt;br&gt;&lt;/p&gt;&lt;hr size=&quot;1&quot;&gt;&lt;p style=&quot;margin:0px;margin-left:4px;&quot;&gt;+ Cook(IDish): void&lt;br&gt;&lt;/p&gt;&lt;p style=&quot;margin:0px;margin-left:4px;&quot;&gt;+ SetNextCook(ICook): void&lt;/p&gt;&lt;p style=&quot;margin:0px;margin-left:4px;&quot;&gt;&lt;br&gt;&lt;/p&gt;" style="verticalAlign=top;align=left;overflow=fill;fontSize=12;fontFamily=Helvetica;html=1;whiteSpace=wrap;" vertex="1" parent="1">
          <mxGeometry x="109" y="550" width="190" height="100" as="geometry" />
        </mxCell>
        <mxCell id="1dVAUiEyzIbPY-LR-RZL-50" style="edgeStyle=orthogonalEdgeStyle;rounded=0;orthogonalLoop=1;jettySize=auto;html=1;endArrow=block;endFill=0;" edge="1" parent="1" source="1dVAUiEyzIbPY-LR-RZL-6">
          <mxGeometry relative="1" as="geometry">
            <mxPoint x="204" y="390" as="targetPoint" />
          </mxGeometry>
        </mxCell>
        <mxCell id="1dVAUiEyzIbPY-LR-RZL-6" value="Confectioner" style="swimlane;fontStyle=1;align=center;verticalAlign=top;childLayout=stackLayout;horizontal=1;startSize=26;horizontalStack=0;resizeParent=1;resizeParentMax=0;resizeLast=0;collapsible=1;marginBottom=0;whiteSpace=wrap;html=1;" vertex="1" parent="1">
          <mxGeometry x="124" y="210" width="160" height="138" as="geometry" />
        </mxCell>
        <mxCell id="1dVAUiEyzIbPY-LR-RZL-58" value="# surname: string" style="text;strokeColor=none;fillColor=none;align=left;verticalAlign=top;spacingLeft=4;spacingRight=4;overflow=hidden;rotatable=0;points=[[0,0.5],[1,0.5]];portConstraint=eastwest;whiteSpace=wrap;html=1;" vertex="1" parent="1dVAUiEyzIbPY-LR-RZL-6">
          <mxGeometry y="26" width="160" height="26" as="geometry" />
        </mxCell>
        <mxCell id="1dVAUiEyzIbPY-LR-RZL-57" value="# successor: ICook" style="text;strokeColor=none;fillColor=none;align=left;verticalAlign=top;spacingLeft=4;spacingRight=4;overflow=hidden;rotatable=0;points=[[0,0.5],[1,0.5]];portConstraint=eastwest;whiteSpace=wrap;html=1;" vertex="1" parent="1dVAUiEyzIbPY-LR-RZL-6">
          <mxGeometry y="52" width="160" height="26" as="geometry" />
        </mxCell>
        <mxCell id="1dVAUiEyzIbPY-LR-RZL-8" value="" style="line;strokeWidth=1;fillColor=none;align=left;verticalAlign=middle;spacingTop=-1;spacingLeft=3;spacingRight=3;rotatable=0;labelPosition=right;points=[];portConstraint=eastwest;strokeColor=inherit;" vertex="1" parent="1dVAUiEyzIbPY-LR-RZL-6">
          <mxGeometry y="78" width="160" height="8" as="geometry" />
        </mxCell>
        <mxCell id="1dVAUiEyzIbPY-LR-RZL-9" value="+ Cook(IDish): void" style="text;strokeColor=none;fillColor=none;align=left;verticalAlign=top;spacingLeft=4;spacingRight=4;overflow=hidden;rotatable=0;points=[[0,0.5],[1,0.5]];portConstraint=eastwest;whiteSpace=wrap;html=1;" vertex="1" parent="1dVAUiEyzIbPY-LR-RZL-6">
          <mxGeometry y="86" width="160" height="26" as="geometry" />
        </mxCell>
        <mxCell id="1dVAUiEyzIbPY-LR-RZL-64" value="+ SetNextCook(ICook): void" style="text;strokeColor=none;fillColor=none;align=left;verticalAlign=top;spacingLeft=4;spacingRight=4;overflow=hidden;rotatable=0;points=[[0,0.5],[1,0.5]];portConstraint=eastwest;whiteSpace=wrap;html=1;" vertex="1" parent="1dVAUiEyzIbPY-LR-RZL-6">
          <mxGeometry y="112" width="160" height="26" as="geometry" />
        </mxCell>
        <mxCell id="1dVAUiEyzIbPY-LR-RZL-51" style="edgeStyle=orthogonalEdgeStyle;rounded=0;orthogonalLoop=1;jettySize=auto;html=1;entryX=0.5;entryY=0;entryDx=0;entryDy=0;endArrow=block;endFill=0;" edge="1" parent="1" source="1dVAUiEyzIbPY-LR-RZL-10" target="1dVAUiEyzIbPY-LR-RZL-42">
          <mxGeometry relative="1" as="geometry">
            <Array as="points">
              <mxPoint x="430" y="370" />
              <mxPoint x="204" y="370" />
            </Array>
          </mxGeometry>
        </mxCell>
        <mxCell id="1dVAUiEyzIbPY-LR-RZL-10" value="Bartender" style="swimlane;fontStyle=1;align=center;verticalAlign=top;childLayout=stackLayout;horizontal=1;startSize=26;horizontalStack=0;resizeParent=1;resizeParentMax=0;resizeLast=0;collapsible=1;marginBottom=0;whiteSpace=wrap;html=1;" vertex="1" parent="1">
          <mxGeometry x="350" y="210" width="160" height="138" as="geometry" />
        </mxCell>
        <mxCell id="1dVAUiEyzIbPY-LR-RZL-60" value="# surname: string" style="text;strokeColor=none;fillColor=none;align=left;verticalAlign=top;spacingLeft=4;spacingRight=4;overflow=hidden;rotatable=0;points=[[0,0.5],[1,0.5]];portConstraint=eastwest;whiteSpace=wrap;html=1;" vertex="1" parent="1dVAUiEyzIbPY-LR-RZL-10">
          <mxGeometry y="26" width="160" height="26" as="geometry" />
        </mxCell>
        <mxCell id="1dVAUiEyzIbPY-LR-RZL-59" value="# successor: ICook" style="text;strokeColor=none;fillColor=none;align=left;verticalAlign=top;spacingLeft=4;spacingRight=4;overflow=hidden;rotatable=0;points=[[0,0.5],[1,0.5]];portConstraint=eastwest;whiteSpace=wrap;html=1;" vertex="1" parent="1dVAUiEyzIbPY-LR-RZL-10">
          <mxGeometry y="52" width="160" height="26" as="geometry" />
        </mxCell>
        <mxCell id="1dVAUiEyzIbPY-LR-RZL-12" value="" style="line;strokeWidth=1;fillColor=none;align=left;verticalAlign=middle;spacingTop=-1;spacingLeft=3;spacingRight=3;rotatable=0;labelPosition=right;points=[];portConstraint=eastwest;strokeColor=inherit;" vertex="1" parent="1dVAUiEyzIbPY-LR-RZL-10">
          <mxGeometry y="78" width="160" height="8" as="geometry" />
        </mxCell>
        <mxCell id="1dVAUiEyzIbPY-LR-RZL-13" value="+ Cook(IDish): void" style="text;strokeColor=none;fillColor=none;align=left;verticalAlign=top;spacingLeft=4;spacingRight=4;overflow=hidden;rotatable=0;points=[[0,0.5],[1,0.5]];portConstraint=eastwest;whiteSpace=wrap;html=1;" vertex="1" parent="1dVAUiEyzIbPY-LR-RZL-10">
          <mxGeometry y="86" width="160" height="26" as="geometry" />
        </mxCell>
        <mxCell id="1dVAUiEyzIbPY-LR-RZL-63" value="+ SetNextCook(ICook): void" style="text;strokeColor=none;fillColor=none;align=left;verticalAlign=top;spacingLeft=4;spacingRight=4;overflow=hidden;rotatable=0;points=[[0,0.5],[1,0.5]];portConstraint=eastwest;whiteSpace=wrap;html=1;" vertex="1" parent="1dVAUiEyzIbPY-LR-RZL-10">
          <mxGeometry y="112" width="160" height="26" as="geometry" />
        </mxCell>
        <mxCell id="1dVAUiEyzIbPY-LR-RZL-74" style="edgeStyle=orthogonalEdgeStyle;rounded=0;orthogonalLoop=1;jettySize=auto;html=1;entryX=0.5;entryY=0;entryDx=0;entryDy=0;startArrow=diamondThin;startFill=0;endArrow=none;endFill=0;" edge="1" parent="1" source="1dVAUiEyzIbPY-LR-RZL-18" target="1dVAUiEyzIbPY-LR-RZL-23">
          <mxGeometry relative="1" as="geometry" />
        </mxCell>
        <mxCell id="1dVAUiEyzIbPY-LR-RZL-18" value="TaskManager" style="swimlane;fontStyle=1;align=center;verticalAlign=top;childLayout=stackLayout;horizontal=1;startSize=26;horizontalStack=0;resizeParent=1;resizeParentMax=0;resizeLast=0;collapsible=1;marginBottom=0;whiteSpace=wrap;html=1;" vertex="1" parent="1">
          <mxGeometry x="-290" y="390" width="200" height="112" as="geometry" />
        </mxCell>
        <mxCell id="1dVAUiEyzIbPY-LR-RZL-19" value="- Cooks: List&amp;lt;Chef&amp;gt;" style="text;strokeColor=none;fillColor=none;align=left;verticalAlign=top;spacingLeft=4;spacingRight=4;overflow=hidden;rotatable=0;points=[[0,0.5],[1,0.5]];portConstraint=eastwest;whiteSpace=wrap;html=1;" vertex="1" parent="1dVAUiEyzIbPY-LR-RZL-18">
          <mxGeometry y="26" width="200" height="26" as="geometry" />
        </mxCell>
        <mxCell id="1dVAUiEyzIbPY-LR-RZL-22" value="- Order: Dictionary&amp;lt;IDish,uint&amp;gt;" style="text;strokeColor=none;fillColor=none;align=left;verticalAlign=top;spacingLeft=4;spacingRight=4;overflow=hidden;rotatable=0;points=[[0,0.5],[1,0.5]];portConstraint=eastwest;whiteSpace=wrap;html=1;" vertex="1" parent="1dVAUiEyzIbPY-LR-RZL-18">
          <mxGeometry y="52" width="200" height="26" as="geometry" />
        </mxCell>
        <mxCell id="1dVAUiEyzIbPY-LR-RZL-20" value="" style="line;strokeWidth=1;fillColor=none;align=left;verticalAlign=middle;spacingTop=-1;spacingLeft=3;spacingRight=3;rotatable=0;labelPosition=right;points=[];portConstraint=eastwest;strokeColor=inherit;" vertex="1" parent="1dVAUiEyzIbPY-LR-RZL-18">
          <mxGeometry y="78" width="200" height="8" as="geometry" />
        </mxCell>
        <mxCell id="1dVAUiEyzIbPY-LR-RZL-21" value="+ GiveRandomTask(): void" style="text;strokeColor=none;fillColor=none;align=left;verticalAlign=top;spacingLeft=4;spacingRight=4;overflow=hidden;rotatable=0;points=[[0,0.5],[1,0.5]];portConstraint=eastwest;whiteSpace=wrap;html=1;" vertex="1" parent="1dVAUiEyzIbPY-LR-RZL-18">
          <mxGeometry y="86" width="200" height="26" as="geometry" />
        </mxCell>
        <mxCell id="1dVAUiEyzIbPY-LR-RZL-23" value="&lt;p style=&quot;margin:0px;margin-top:4px;text-align:center;&quot;&gt;&lt;i&gt;&amp;lt;&amp;lt;Interface&amp;gt;&amp;gt;&lt;/i&gt;&lt;br&gt;&lt;b&gt;IDish&lt;/b&gt;&lt;/p&gt;&lt;hr size=&quot;1&quot;&gt;&lt;p style=&quot;margin:0px;margin-left:4px;&quot;&gt;+ name: string&lt;br&gt;&lt;/p&gt;&lt;p style=&quot;margin:0px;margin-left:4px;&quot;&gt;+ time: TImeOnly&lt;br&gt;&lt;/p&gt;&lt;p style=&quot;margin:0px;margin-left:4px;&quot;&gt;+ category: Category&lt;/p&gt;&lt;p style=&quot;margin:0px;margin-left:4px;&quot;&gt;+ ingredients: List&amp;lt;ingredient&amp;gt;&lt;/p&gt;" style="verticalAlign=top;align=left;overflow=fill;fontSize=12;fontFamily=Helvetica;html=1;whiteSpace=wrap;" vertex="1" parent="1">
          <mxGeometry x="-290" y="568" width="200" height="102" as="geometry" />
        </mxCell>
        <mxCell id="1dVAUiEyzIbPY-LR-RZL-75" style="edgeStyle=orthogonalEdgeStyle;rounded=0;orthogonalLoop=1;jettySize=auto;html=1;entryX=0.5;entryY=1;entryDx=0;entryDy=0;endArrow=block;endFill=0;dashed=1;exitX=0.5;exitY=0;exitDx=0;exitDy=0;" edge="1" parent="1" source="1dVAUiEyzIbPY-LR-RZL-30" target="1dVAUiEyzIbPY-LR-RZL-23">
          <mxGeometry relative="1" as="geometry">
            <Array as="points">
              <mxPoint x="-475" y="690" />
              <mxPoint x="-190" y="690" />
            </Array>
          </mxGeometry>
        </mxCell>
        <mxCell id="1dVAUiEyzIbPY-LR-RZL-30" value="Pizza" style="swimlane;fontStyle=0;childLayout=stackLayout;horizontal=1;startSize=26;fillColor=none;horizontalStack=0;resizeParent=1;resizeParentMax=0;resizeLast=0;collapsible=1;marginBottom=0;whiteSpace=wrap;html=1;" vertex="1" parent="1">
          <mxGeometry x="-570" y="708" width="190" height="130" as="geometry" />
        </mxCell>
        <mxCell id="1dVAUiEyzIbPY-LR-RZL-34" value="+ name: string" style="text;strokeColor=none;fillColor=none;align=left;verticalAlign=top;spacingLeft=4;spacingRight=4;overflow=hidden;rotatable=0;points=[[0,0.5],[1,0.5]];portConstraint=eastwest;whiteSpace=wrap;html=1;" vertex="1" parent="1dVAUiEyzIbPY-LR-RZL-30">
          <mxGeometry y="26" width="190" height="26" as="geometry" />
        </mxCell>
        <mxCell id="1dVAUiEyzIbPY-LR-RZL-80" value="+ time: TImeOnly" style="text;strokeColor=none;fillColor=none;align=left;verticalAlign=top;spacingLeft=4;spacingRight=4;overflow=hidden;rotatable=0;points=[[0,0.5],[1,0.5]];portConstraint=eastwest;whiteSpace=wrap;html=1;" vertex="1" parent="1dVAUiEyzIbPY-LR-RZL-30">
          <mxGeometry y="52" width="190" height="26" as="geometry" />
        </mxCell>
        <mxCell id="1dVAUiEyzIbPY-LR-RZL-81" value="+ category: Category" style="text;strokeColor=none;fillColor=none;align=left;verticalAlign=top;spacingLeft=4;spacingRight=4;overflow=hidden;rotatable=0;points=[[0,0.5],[1,0.5]];portConstraint=eastwest;whiteSpace=wrap;html=1;" vertex="1" parent="1dVAUiEyzIbPY-LR-RZL-30">
          <mxGeometry y="78" width="190" height="26" as="geometry" />
        </mxCell>
        <mxCell id="1dVAUiEyzIbPY-LR-RZL-35" value="+ ingredients: List&amp;lt;ingredient&amp;gt;" style="text;strokeColor=none;fillColor=none;align=left;verticalAlign=top;spacingLeft=4;spacingRight=4;overflow=hidden;rotatable=0;points=[[0,0.5],[1,0.5]];portConstraint=eastwest;whiteSpace=wrap;html=1;" vertex="1" parent="1dVAUiEyzIbPY-LR-RZL-30">
          <mxGeometry y="104" width="190" height="26" as="geometry" />
        </mxCell>
        <mxCell id="1dVAUiEyzIbPY-LR-RZL-76" style="edgeStyle=orthogonalEdgeStyle;rounded=0;orthogonalLoop=1;jettySize=auto;html=1;entryX=0.5;entryY=1;entryDx=0;entryDy=0;dashed=1;endArrow=block;endFill=0;" edge="1" parent="1" source="1dVAUiEyzIbPY-LR-RZL-36" target="1dVAUiEyzIbPY-LR-RZL-23">
          <mxGeometry relative="1" as="geometry" />
        </mxCell>
        <mxCell id="1dVAUiEyzIbPY-LR-RZL-36" value="Desert" style="swimlane;fontStyle=0;childLayout=stackLayout;horizontal=1;startSize=26;fillColor=none;horizontalStack=0;resizeParent=1;resizeParentMax=0;resizeLast=0;collapsible=1;marginBottom=0;whiteSpace=wrap;html=1;" vertex="1" parent="1">
          <mxGeometry x="-285" y="708" width="190" height="130" as="geometry" />
        </mxCell>
        <mxCell id="1dVAUiEyzIbPY-LR-RZL-98" value="+ ingredients: List&amp;lt;ingredient&amp;gt;" style="text;strokeColor=none;fillColor=none;align=left;verticalAlign=top;spacingLeft=4;spacingRight=4;overflow=hidden;rotatable=0;points=[[0,0.5],[1,0.5]];portConstraint=eastwest;whiteSpace=wrap;html=1;" vertex="1" parent="1dVAUiEyzIbPY-LR-RZL-36">
          <mxGeometry y="26" width="190" height="26" as="geometry" />
        </mxCell>
        <mxCell id="1dVAUiEyzIbPY-LR-RZL-97" value="+ category: Category" style="text;strokeColor=none;fillColor=none;align=left;verticalAlign=top;spacingLeft=4;spacingRight=4;overflow=hidden;rotatable=0;points=[[0,0.5],[1,0.5]];portConstraint=eastwest;whiteSpace=wrap;html=1;" vertex="1" parent="1dVAUiEyzIbPY-LR-RZL-36">
          <mxGeometry y="52" width="190" height="26" as="geometry" />
        </mxCell>
        <mxCell id="1dVAUiEyzIbPY-LR-RZL-96" value="+ time: TImeOnly" style="text;strokeColor=none;fillColor=none;align=left;verticalAlign=top;spacingLeft=4;spacingRight=4;overflow=hidden;rotatable=0;points=[[0,0.5],[1,0.5]];portConstraint=eastwest;whiteSpace=wrap;html=1;" vertex="1" parent="1dVAUiEyzIbPY-LR-RZL-36">
          <mxGeometry y="78" width="190" height="26" as="geometry" />
        </mxCell>
        <mxCell id="1dVAUiEyzIbPY-LR-RZL-95" value="+ name: string" style="text;strokeColor=none;fillColor=none;align=left;verticalAlign=top;spacingLeft=4;spacingRight=4;overflow=hidden;rotatable=0;points=[[0,0.5],[1,0.5]];portConstraint=eastwest;whiteSpace=wrap;html=1;" vertex="1" parent="1dVAUiEyzIbPY-LR-RZL-36">
          <mxGeometry y="104" width="190" height="26" as="geometry" />
        </mxCell>
        <mxCell id="1dVAUiEyzIbPY-LR-RZL-77" style="edgeStyle=orthogonalEdgeStyle;rounded=0;orthogonalLoop=1;jettySize=auto;html=1;entryX=0.5;entryY=1;entryDx=0;entryDy=0;dashed=1;endArrow=block;endFill=0;exitX=0.5;exitY=0;exitDx=0;exitDy=0;" edge="1" parent="1" source="1dVAUiEyzIbPY-LR-RZL-39" target="1dVAUiEyzIbPY-LR-RZL-23">
          <mxGeometry relative="1" as="geometry">
            <Array as="points">
              <mxPoint x="90" y="708" />
              <mxPoint x="90" y="690" />
              <mxPoint x="-190" y="690" />
            </Array>
          </mxGeometry>
        </mxCell>
        <mxCell id="1dVAUiEyzIbPY-LR-RZL-39" value="Juice" style="swimlane;fontStyle=0;childLayout=stackLayout;horizontal=1;startSize=26;fillColor=none;horizontalStack=0;resizeParent=1;resizeParentMax=0;resizeLast=0;collapsible=1;marginBottom=0;whiteSpace=wrap;html=1;" vertex="1" parent="1">
          <mxGeometry x="-10" y="708" width="195" height="130" as="geometry" />
        </mxCell>
        <mxCell id="1dVAUiEyzIbPY-LR-RZL-91" value="+ name: string" style="text;strokeColor=none;fillColor=none;align=left;verticalAlign=top;spacingLeft=4;spacingRight=4;overflow=hidden;rotatable=0;points=[[0,0.5],[1,0.5]];portConstraint=eastwest;whiteSpace=wrap;html=1;" vertex="1" parent="1dVAUiEyzIbPY-LR-RZL-39">
          <mxGeometry y="26" width="195" height="26" as="geometry" />
        </mxCell>
        <mxCell id="1dVAUiEyzIbPY-LR-RZL-94" value="+ ingredients: List&amp;lt;ingredient&amp;gt;" style="text;strokeColor=none;fillColor=none;align=left;verticalAlign=top;spacingLeft=4;spacingRight=4;overflow=hidden;rotatable=0;points=[[0,0.5],[1,0.5]];portConstraint=eastwest;whiteSpace=wrap;html=1;" vertex="1" parent="1dVAUiEyzIbPY-LR-RZL-39">
          <mxGeometry y="52" width="195" height="26" as="geometry" />
        </mxCell>
        <mxCell id="1dVAUiEyzIbPY-LR-RZL-93" value="+ category: Category" style="text;strokeColor=none;fillColor=none;align=left;verticalAlign=top;spacingLeft=4;spacingRight=4;overflow=hidden;rotatable=0;points=[[0,0.5],[1,0.5]];portConstraint=eastwest;whiteSpace=wrap;html=1;" vertex="1" parent="1dVAUiEyzIbPY-LR-RZL-39">
          <mxGeometry y="78" width="195" height="26" as="geometry" />
        </mxCell>
        <mxCell id="1dVAUiEyzIbPY-LR-RZL-92" value="+ time: TImeOnly" style="text;strokeColor=none;fillColor=none;align=left;verticalAlign=top;spacingLeft=4;spacingRight=4;overflow=hidden;rotatable=0;points=[[0,0.5],[1,0.5]];portConstraint=eastwest;whiteSpace=wrap;html=1;" vertex="1" parent="1dVAUiEyzIbPY-LR-RZL-39">
          <mxGeometry y="104" width="195" height="26" as="geometry" />
        </mxCell>
        <mxCell id="1dVAUiEyzIbPY-LR-RZL-47" style="edgeStyle=orthogonalEdgeStyle;rounded=0;orthogonalLoop=1;jettySize=auto;html=1;entryX=0.5;entryY=0;entryDx=0;entryDy=0;dashed=1;endArrow=block;endFill=0;" edge="1" parent="1" source="1dVAUiEyzIbPY-LR-RZL-42" target="1dVAUiEyzIbPY-LR-RZL-5">
          <mxGeometry relative="1" as="geometry" />
        </mxCell>
        <mxCell id="1dVAUiEyzIbPY-LR-RZL-42" value="Chef" style="swimlane;fontStyle=1;align=center;verticalAlign=top;childLayout=stackLayout;horizontal=1;startSize=26;horizontalStack=0;resizeParent=1;resizeParentMax=0;resizeLast=0;collapsible=1;marginBottom=0;whiteSpace=wrap;html=1;" vertex="1" parent="1">
          <mxGeometry x="124" y="390" width="160" height="138" as="geometry" />
        </mxCell>
        <mxCell id="1dVAUiEyzIbPY-LR-RZL-43" value="# successor: ICook" style="text;strokeColor=none;fillColor=none;align=left;verticalAlign=top;spacingLeft=4;spacingRight=4;overflow=hidden;rotatable=0;points=[[0,0.5],[1,0.5]];portConstraint=eastwest;whiteSpace=wrap;html=1;" vertex="1" parent="1dVAUiEyzIbPY-LR-RZL-42">
          <mxGeometry y="26" width="160" height="26" as="geometry" />
        </mxCell>
        <mxCell id="1dVAUiEyzIbPY-LR-RZL-46" value="# surname: string" style="text;strokeColor=none;fillColor=none;align=left;verticalAlign=top;spacingLeft=4;spacingRight=4;overflow=hidden;rotatable=0;points=[[0,0.5],[1,0.5]];portConstraint=eastwest;whiteSpace=wrap;html=1;" vertex="1" parent="1dVAUiEyzIbPY-LR-RZL-42">
          <mxGeometry y="52" width="160" height="26" as="geometry" />
        </mxCell>
        <mxCell id="1dVAUiEyzIbPY-LR-RZL-44" value="" style="line;strokeWidth=1;fillColor=none;align=left;verticalAlign=middle;spacingTop=-1;spacingLeft=3;spacingRight=3;rotatable=0;labelPosition=right;points=[];portConstraint=eastwest;strokeColor=inherit;" vertex="1" parent="1dVAUiEyzIbPY-LR-RZL-42">
          <mxGeometry y="78" width="160" height="8" as="geometry" />
        </mxCell>
        <mxCell id="1dVAUiEyzIbPY-LR-RZL-45" value="+ Cook(IDish): void" style="text;strokeColor=none;fillColor=none;align=left;verticalAlign=top;spacingLeft=4;spacingRight=4;overflow=hidden;rotatable=0;points=[[0,0.5],[1,0.5]];portConstraint=eastwest;whiteSpace=wrap;html=1;" vertex="1" parent="1dVAUiEyzIbPY-LR-RZL-42">
          <mxGeometry y="86" width="160" height="26" as="geometry" />
        </mxCell>
        <mxCell id="1dVAUiEyzIbPY-LR-RZL-61" value="+ SetNextCook(ICook): void" style="text;strokeColor=none;fillColor=none;align=left;verticalAlign=top;spacingLeft=4;spacingRight=4;overflow=hidden;rotatable=0;points=[[0,0.5],[1,0.5]];portConstraint=eastwest;whiteSpace=wrap;html=1;" vertex="1" parent="1dVAUiEyzIbPY-LR-RZL-42">
          <mxGeometry y="112" width="160" height="26" as="geometry" />
        </mxCell>
        <mxCell id="1dVAUiEyzIbPY-LR-RZL-52" style="edgeStyle=orthogonalEdgeStyle;rounded=0;orthogonalLoop=1;jettySize=auto;html=1;entryX=1;entryY=0.5;entryDx=0;entryDy=0;startArrow=diamondThin;startFill=0;endArrow=openThin;endFill=0;" edge="1" parent="1" source="1dVAUiEyzIbPY-LR-RZL-46" target="1dVAUiEyzIbPY-LR-RZL-5">
          <mxGeometry relative="1" as="geometry">
            <Array as="points">
              <mxPoint x="319" y="455" />
              <mxPoint x="319" y="600" />
            </Array>
          </mxGeometry>
        </mxCell>
        <mxCell id="1dVAUiEyzIbPY-LR-RZL-73" style="edgeStyle=orthogonalEdgeStyle;rounded=0;orthogonalLoop=1;jettySize=auto;html=1;entryX=0;entryY=0.5;entryDx=0;entryDy=0;startArrow=diamondThin;startFill=0;endArrow=none;endFill=0;" edge="1" parent="1" source="1dVAUiEyzIbPY-LR-RZL-22" target="1dVAUiEyzIbPY-LR-RZL-46">
          <mxGeometry relative="1" as="geometry" />
        </mxCell>
        <mxCell id="1dVAUiEyzIbPY-LR-RZL-100" style="edgeStyle=orthogonalEdgeStyle;rounded=0;orthogonalLoop=1;jettySize=auto;html=1;endArrow=none;endFill=0;startArrow=diamondThin;startFill=0;" edge="1" parent="1" source="1dVAUiEyzIbPY-LR-RZL-79" target="1dVAUiEyzIbPY-LR-RZL-36">
          <mxGeometry relative="1" as="geometry" />
        </mxCell>
        <mxCell id="1dVAUiEyzIbPY-LR-RZL-101" style="edgeStyle=orthogonalEdgeStyle;rounded=0;orthogonalLoop=1;jettySize=auto;html=1;endArrow=none;endFill=0;startArrow=diamondThin;startFill=0;" edge="1" parent="1" source="1dVAUiEyzIbPY-LR-RZL-79" target="1dVAUiEyzIbPY-LR-RZL-39">
          <mxGeometry relative="1" as="geometry">
            <Array as="points">
              <mxPoint x="-190" y="870" />
              <mxPoint x="88" y="870" />
            </Array>
          </mxGeometry>
        </mxCell>
        <mxCell id="1dVAUiEyzIbPY-LR-RZL-102" style="edgeStyle=orthogonalEdgeStyle;rounded=0;orthogonalLoop=1;jettySize=auto;html=1;endArrow=none;endFill=0;startArrow=diamondThin;startFill=0;" edge="1" parent="1" source="1dVAUiEyzIbPY-LR-RZL-79" target="1dVAUiEyzIbPY-LR-RZL-30">
          <mxGeometry relative="1" as="geometry">
            <Array as="points">
              <mxPoint x="-190" y="870" />
              <mxPoint x="-475" y="870" />
            </Array>
          </mxGeometry>
        </mxCell>
        <mxCell id="1dVAUiEyzIbPY-LR-RZL-79" value="&lt;p style=&quot;margin:0px;margin-top:4px;text-align:center;&quot;&gt;&lt;i&gt;&amp;lt;&amp;lt;Enumeration&amp;gt;&amp;gt;&lt;/i&gt;&lt;br&gt;&lt;b&gt;Category&lt;/b&gt;&lt;/p&gt;&lt;hr size=&quot;1&quot;&gt;&lt;p style=&quot;margin:0px;margin-left:4px;&quot;&gt;Pizza&lt;/p&gt;&lt;p style=&quot;margin:0px;margin-left:4px;&quot;&gt;Drink&lt;/p&gt;&lt;p style=&quot;margin:0px;margin-left:4px;&quot;&gt;Desert&lt;/p&gt;" style="verticalAlign=top;align=left;overflow=fill;fontSize=12;fontFamily=Helvetica;html=1;whiteSpace=wrap;" vertex="1" parent="1">
          <mxGeometry x="-285" y="890" width="190" height="90" as="geometry" />
        </mxCell>
        <mxCell id="1dVAUiEyzIbPY-LR-RZL-99" style="edgeStyle=orthogonalEdgeStyle;rounded=0;orthogonalLoop=1;jettySize=auto;html=1;exitX=0.5;exitY=1;exitDx=0;exitDy=0;" edge="1" parent="1" source="1dVAUiEyzIbPY-LR-RZL-79" target="1dVAUiEyzIbPY-LR-RZL-79">
          <mxGeometry relative="1" as="geometry" />
        </mxCell>
        <mxCell id="1dVAUiEyzIbPY-LR-RZL-103" value="Simulator" style="swimlane;fontStyle=1;align=center;verticalAlign=top;childLayout=stackLayout;horizontal=1;startSize=26;horizontalStack=0;resizeParent=1;resizeParentMax=0;resizeLast=0;collapsible=1;marginBottom=0;whiteSpace=wrap;html=1;" vertex="1" parent="1">
          <mxGeometry x="-580" y="410" width="200" height="86" as="geometry" />
        </mxCell>
        <mxCell id="1dVAUiEyzIbPY-LR-RZL-104" value="- taskManager: TaskManager" style="text;strokeColor=none;fillColor=none;align=left;verticalAlign=top;spacingLeft=4;spacingRight=4;overflow=hidden;rotatable=0;points=[[0,0.5],[1,0.5]];portConstraint=eastwest;whiteSpace=wrap;html=1;" vertex="1" parent="1dVAUiEyzIbPY-LR-RZL-103">
          <mxGeometry y="26" width="200" height="26" as="geometry" />
        </mxCell>
        <mxCell id="1dVAUiEyzIbPY-LR-RZL-106" value="" style="line;strokeWidth=1;fillColor=none;align=left;verticalAlign=middle;spacingTop=-1;spacingLeft=3;spacingRight=3;rotatable=0;labelPosition=right;points=[];portConstraint=eastwest;strokeColor=inherit;" vertex="1" parent="1dVAUiEyzIbPY-LR-RZL-103">
          <mxGeometry y="52" width="200" height="8" as="geometry" />
        </mxCell>
        <mxCell id="1dVAUiEyzIbPY-LR-RZL-107" value="+ StartSimulation(): void" style="text;strokeColor=none;fillColor=none;align=left;verticalAlign=top;spacingLeft=4;spacingRight=4;overflow=hidden;rotatable=0;points=[[0,0.5],[1,0.5]];portConstraint=eastwest;whiteSpace=wrap;html=1;" vertex="1" parent="1dVAUiEyzIbPY-LR-RZL-103">
          <mxGeometry y="60" width="200" height="26" as="geometry" />
        </mxCell>
        <mxCell id="1dVAUiEyzIbPY-LR-RZL-108" style="edgeStyle=orthogonalEdgeStyle;rounded=0;orthogonalLoop=1;jettySize=auto;html=1;endArrow=none;endFill=0;" edge="1" parent="1" source="1dVAUiEyzIbPY-LR-RZL-104" target="1dVAUiEyzIbPY-LR-RZL-18">
          <mxGeometry relative="1" as="geometry">
            <Array as="points">
              <mxPoint x="-320" y="449" />
              <mxPoint x="-320" y="449" />
            </Array>
          </mxGeometry>
        </mxCell>
        <mxCell id="1dVAUiEyzIbPY-LR-RZL-115" style="edgeStyle=orthogonalEdgeStyle;rounded=0;orthogonalLoop=1;jettySize=auto;html=1;entryX=0;entryY=0.5;entryDx=0;entryDy=0;startArrow=diamondThin;startFill=0;endArrow=none;endFill=0;" edge="1" parent="1" source="1dVAUiEyzIbPY-LR-RZL-110" target="1dVAUiEyzIbPY-LR-RZL-80">
          <mxGeometry relative="1" as="geometry">
            <Array as="points">
              <mxPoint x="-305" y="1000" />
              <mxPoint x="-590" y="1000" />
              <mxPoint x="-590" y="773" />
            </Array>
          </mxGeometry>
        </mxCell>
        <mxCell id="1dVAUiEyzIbPY-LR-RZL-116" style="edgeStyle=orthogonalEdgeStyle;rounded=0;orthogonalLoop=1;jettySize=auto;html=1;entryX=0;entryY=0.5;entryDx=0;entryDy=0;endArrow=none;endFill=0;startArrow=diamondThin;startFill=0;" edge="1" parent="1" source="1dVAUiEyzIbPY-LR-RZL-110" target="1dVAUiEyzIbPY-LR-RZL-97">
          <mxGeometry relative="1" as="geometry">
            <Array as="points">
              <mxPoint x="-305" y="773" />
            </Array>
          </mxGeometry>
        </mxCell>
        <mxCell id="1dVAUiEyzIbPY-LR-RZL-117" style="edgeStyle=orthogonalEdgeStyle;rounded=0;orthogonalLoop=1;jettySize=auto;html=1;entryX=0;entryY=0.5;entryDx=0;entryDy=0;endArrow=none;endFill=0;startArrow=diamondThin;startFill=0;" edge="1" parent="1" source="1dVAUiEyzIbPY-LR-RZL-110" target="1dVAUiEyzIbPY-LR-RZL-94">
          <mxGeometry relative="1" as="geometry">
            <Array as="points">
              <mxPoint x="-305" y="1000" />
              <mxPoint x="-40" y="1000" />
              <mxPoint x="-40" y="773" />
            </Array>
          </mxGeometry>
        </mxCell>
        <mxCell id="1dVAUiEyzIbPY-LR-RZL-110" value="Ingredient" style="swimlane;fontStyle=0;childLayout=stackLayout;horizontal=1;startSize=26;fillColor=none;horizontalStack=0;resizeParent=1;resizeParentMax=0;resizeLast=0;collapsible=1;marginBottom=0;whiteSpace=wrap;html=1;" vertex="1" parent="1">
          <mxGeometry x="-400" y="1030" width="190" height="52" as="geometry" />
        </mxCell>
        <mxCell id="1dVAUiEyzIbPY-LR-RZL-111" value="+ name: string" style="text;strokeColor=none;fillColor=none;align=left;verticalAlign=top;spacingLeft=4;spacingRight=4;overflow=hidden;rotatable=0;points=[[0,0.5],[1,0.5]];portConstraint=eastwest;whiteSpace=wrap;html=1;" vertex="1" parent="1dVAUiEyzIbPY-LR-RZL-110">
          <mxGeometry y="26" width="190" height="26" as="geometry" />
        </mxCell>
      </root>
    </mxGraphModel>
  </diagram>
</mxfile>
